<svg xmlns="http://www.w3.org/2000/svg" width="800" height="320" viewBox="0 0 800 320" font-family="-apple-system, Segoe UI, Roboto, Helvetica, Arial, sans-serif">
  <defs>
    <linearGradient id="sky" x1="0" y1="0" x2="0" y2="1">
      <stop offset="0" stop-color="#1d4ed8"/>
      <stop offset="0.5" stop-color="#3b82f6"/>
      <stop offset="1" stop-color="#93c5fd"/>
    </linearGradient>
    <radialGradient id="sun" cx="0.5" cy="0.5" r="0.5">
      <stop offset="0" stop-color="#fffbeb"/>
      <stop offset="0.5" stop-color="#fde047"/>
      <stop offset="1" stop-color="#facc15"/>
    </radialGradient>
    <linearGradient id="card" x1="0" y1="0" x2="0" y2="1">
      <stop offset="0" stop-color="#ffffff" stop-opacity="0.20"/>
      <stop offset="1" stop-color="#ffffff" stop-opacity="0.10"/>
    </linearGradient>
  </defs>

  <!-- Sky background -->
  <rect width="800" height="320" fill="url(#sky)"/>

  <!-- soft clouds -->
  <g fill="#ffffff" opacity="0.16">
    <ellipse cx="180" cy="250" rx="120" ry="34"/>
    <ellipse cx="280" cy="262" rx="90" ry="28"/>
    <ellipse cx="620" cy="280" rx="140" ry="36"/>
  </g>

  <!-- Sun icon with rays -->
  <g stroke="#fde047" stroke-width="6" stroke-linecap="round">
    <line x1="690" y1="22" x2="690" y2="40"/>
    <line x1="690" y1="116" x2="690" y2="134"/>
    <line x1="636" y1="78" x2="654" y2="78"/>
    <line x1="726" y1="78" x2="744" y2="78"/>
    <line x1="652" y1="40" x2="664" y2="52"/>
    <line x1="716" y1="104" x2="728" y2="116"/>
    <line x1="728" y1="40" x2="716" y2="52"/>
    <line x1="664" y1="104" x2="652" y2="116"/>
  </g>
  <circle cx="690" cy="78" r="34" fill="url(#sun)"/>

  <!-- Location + temperature (nudged right so left edge isn't clipped) -->
  <g transform="translate(16,0)">
    <!-- Location -->
    <path d="M44 44 a11 11 0 0 1 22 0 c0 9 -11 21 -11 21 c0 0 -11 -12 -11 -21 z" fill="#ffffff"/>
    <circle cx="55" cy="44" r="4.5" fill="#3b82f6"/>
    <text x="76" y="54" fill="#ffffff" font-size="28" font-weight="700">Islamabad</text>
    <text x="46" y="86" fill="#dbeafe" font-size="15">Partly Sunny · Today</text>

    <!-- Big temperature -->
    <text x="40" y="208" fill="#ffffff" font-size="110" font-weight="800" letter-spacing="-3">28<tspan font-size="48" font-weight="600" dy="-44">°C</tspan></text>
    <text x="46" y="240" fill="#eff6ff" font-size="16">Feels like 30°C</text>
  </g>

  <!-- Info card -->
  <rect x="32" y="256" width="736" height="48" rx="16" fill="url(#card)" stroke="#ffffff" stroke-opacity="0.25" stroke-width="1"/>

  <!-- Humidity -->
  <path d="M150 268 c-8 10 -14 17 -14 24 a14 14 0 0 0 28 0 c0 -7 -6 -14 -14 -24 z" fill="#bae6fd"/>
  <text x="180" y="278" fill="#dbeafe" font-size="12" letter-spacing="1">HUMIDITY</text>
  <text x="180" y="296" fill="#ffffff" font-size="17" font-weight="700">45%</text>

  <!-- divider -->
  <rect x="400" y="268" width="1" height="24" fill="#ffffff" opacity="0.25"/>

  <!-- Wind -->
  <path d="M470 274 h26 a8 8 0 1 0 -8 -8 M470 288 h40 a8 8 0 1 1 -8 8" fill="none" stroke="#bae6fd" stroke-width="3" stroke-linecap="round"/>
  <text x="528" y="278" fill="#dbeafe" font-size="12" letter-spacing="1">WIND</text>
  <text x="528" y="296" fill="#ffffff" font-size="17" font-weight="700">12 km/h</text>
</svg>
